<svg width="8" height="12" viewBox="0 0 8 12" fill="none" xmlns="http://www.w3.org/2000/svg">
<path fill-rule="evenodd" clip-rule="evenodd" d="M0.944422 0.452964L0.933694 0.445561C0.852178 0.389261 0.773232 0.334737 0.706788 0.297989C0.647138 0.265 0.527225 0.203412 0.389719 0.238012C0.234961 0.276956 0.104557 0.40562 0.0389492 0.584102C-0.0193494 0.742697 0.00173191 0.901798 0.014059 0.981476C0.027793 1.07023 0.0526231 1.17815 0.0782639 1.28958L0.0816351 1.30424L0.374243 2.57665L0.390516 2.64747C0.541539 3.30479 0.638714 3.72775 0.831354 4.07287C1.00137 4.37746 1.22314 4.63194 1.48098 4.81831C1.77313 5.0295 2.12013 5.11628 2.65939 5.25103L2.71749 5.26558L4.58426 5.73279L2.71749 6.2L2.65939 6.21455C2.12013 6.3493 1.77313 6.43608 1.48098 6.64727C1.22314 6.83367 1.00137 7.08815 0.831354 7.39272C0.638714 7.73781 0.541539 8.16083 0.390516 8.81812L0.374243 8.88896L0.0816351 10.1614L0.0782596 10.176C0.0526231 10.2874 0.027793 10.3954 0.014059 10.4841C0.00173191 10.5638 -0.0193494 10.7229 0.0389492 10.8815C0.104557 11.06 0.234961 11.1886 0.389719 11.2275C0.527225 11.2622 0.647138 11.2006 0.706788 11.1676C0.773232 11.1309 0.852178 11.0763 0.933694 11.02L0.944422 11.0126L7.00576 6.82781L7.01863 6.81891C7.18389 6.70478 7.32697 6.60607 7.43472 6.5147C7.54324 6.42275 7.66307 6.3009 7.72982 6.1178C7.81907 5.87309 7.81907 5.5925 7.72982 5.34778C7.66307 5.16468 7.54324 5.04283 7.43472 4.95088C7.32697 4.85952 7.18389 4.7608 7.01863 4.6467L7.00576 4.63779L0.944422 0.452964Z" fill="white"/>
</svg>
