<svg width="24" height="24" viewBox="0 0 24 24" fill="none" xmlns="http://www.w3.org/2000/svg">
<g clip-path="url(#clip0_2006_400)">
<path fill-rule="evenodd" clip-rule="evenodd" d="M8.07197 5.8092L8.05634 5.80052C7.93756 5.7345 7.82252 5.67057 7.7257 5.62748C7.63878 5.5888 7.46405 5.51659 7.26368 5.55716C7.03817 5.60282 6.84816 5.75368 6.75256 5.96296C6.66761 6.14892 6.69832 6.33547 6.71629 6.42889C6.7363 6.53296 6.77248 6.6595 6.80984 6.79015L6.81476 6.80734L7.24113 8.29927L7.26484 8.38231C7.48491 9.15303 7.62651 9.64897 7.90721 10.0536C8.15496 10.4108 8.4781 10.7092 8.85382 10.9277C9.27952 11.1753 9.78516 11.2771 10.5709 11.4351L10.6556 11.4521L13.3758 11.9999L10.6556 12.5477L10.5709 12.5648C9.78516 12.7228 9.27952 12.8246 8.85382 13.0722C8.4781 13.2907 8.15496 13.5891 7.90721 13.9462C7.62651 14.3509 7.48491 14.8469 7.26484 15.6176L7.24113 15.7006L6.81476 17.1926L6.80984 17.2097C6.77248 17.3404 6.7363 17.4669 6.71629 17.571C6.69832 17.6644 6.66761 17.8509 6.75256 18.0369C6.84816 18.2462 7.03817 18.3971 7.26368 18.4427C7.46405 18.4833 7.63878 18.4111 7.7257 18.3724C7.82252 18.3293 7.93756 18.2654 8.05634 18.1994L8.07197 18.1907L16.9043 13.2839L16.923 13.2734C17.1638 13.1396 17.3723 13.0239 17.5293 12.9167C17.6875 12.8089 17.8621 12.6661 17.9593 12.4514C18.0894 12.1644 18.0894 11.8354 17.9593 11.5485C17.8621 11.3338 17.6875 11.1909 17.5293 11.0831C17.3723 10.976 17.1638 10.8602 16.923 10.7265L16.9043 10.716L8.07197 5.8092Z" fill="black"/>
</g>
<defs>
<clipPath id="clip0_2006_400">
<rect width="24" height="24" fill="white"/>
</clipPath>
</defs>
</svg>
