<?xml version="1.0" standalone="no"?>
<!DOCTYPE svg PUBLIC "-//W3C//DTD SVG 20010904//EN"
 "http://www.w3.org/TR/2001/REC-SVG-20010904/DTD/svg10.dtd">
<svg version="1.0" xmlns="http://www.w3.org/2000/svg"
 width="40px" height="40px" viewBox="0 0 512.000000 512.000000"
 preserveAspectRatio="xMidYMid meet">

<g transform="translate(0.000000,512.000000) scale(0.100000,-0.100000)"
fill="#000000" stroke="none">
<path d="M2533 4583 c-24 -5 -1569 -1430 -1615 -1490 -15 -20 -35 -57 -45 -82
-17 -43 -18 -115 -18 -1136 l0 -1090 29 -63 c34 -73 86 -124 165 -161 l56 -26
307 -3 c252 -3 318 -1 368 12 106 27 170 82 219 186 l26 55 3 513 3 512 529 0
529 0 3 -512 3 -513 29 -63 c34 -73 86 -124 165 -161 l56 -26 307 -3 c252 -3
318 -1 368 12 106 27 170 82 219 186 l26 55 3 1069 c3 1171 4 1146 -56 1229
-36 49 -1599 1497 -1617 1497 -7 0 -19 2 -27 4 -7 2 -23 1 -35 -1z"/>
</g>
</svg>
