<svg width="35" height="33" viewBox="0 0 35 33" fill="none" xmlns="http://www.w3.org/2000/svg">
<rect width="35" height="33" rx="10" fill="white" fill-opacity="0.72"/>
<rect x="0.15" y="0.15" width="34.7" height="32.7" rx="9.85" stroke="white" stroke-opacity="0.43" stroke-width="0.3" stroke-dasharray="1 1"/>
<g clip-path="url(#clip0_16_2)">
<path d="M17.8988 21.3333C19.0446 21.3333 19.9821 20.4708 19.9821 19.4167C19.9821 18.3625 19.0446 17.5 17.8988 17.5C16.7529 17.5 15.8154 18.3625 15.8154 19.4167C15.8154 20.4708 16.7529 21.3333 17.8988 21.3333ZM24.1488 12.7083H23.1071V10.7917C23.1071 8.14667 20.7738 6 17.8988 6C15.0238 6 12.6904 8.14667 12.6904 10.7917V12.7083H11.6488C10.5029 12.7083 9.56543 13.5708 9.56543 14.625V24.2083C9.56543 25.2625 10.5029 26.125 11.6488 26.125H24.1488C25.2946 26.125 26.2321 25.2625 26.2321 24.2083V14.625C26.2321 13.5708 25.2946 12.7083 24.1488 12.7083ZM14.6696 10.7917C14.6696 9.15292 16.1175 7.82083 17.8988 7.82083C19.68 7.82083 21.1279 9.15292 21.1279 10.7917V12.7083H14.6696V10.7917ZM24.1488 24.2083H11.6488V14.625H24.1488V24.2083Z" fill="url(#paint0_linear_16_2)"/>
</g>
<defs>
<linearGradient id="paint0_linear_16_2" x1="17.8988" y1="6" x2="17.8988" y2="26.125" gradientUnits="userSpaceOnUse">
<stop stop-color="#BE05FF"/>
<stop offset="1" stop-color="#0F52FF"/>
</linearGradient>
<clipPath id="clip0_16_2">
<rect width="25" height="23" fill="white" transform="translate(5 6)"/>
</clipPath>
</defs>
</svg>
