<?xml version="1.0" standalone="no"?>
<!DOCTYPE svg PUBLIC "-//W3C//DTD SVG 20010904//EN"
 "http://www.w3.org/TR/2001/REC-SVG-20010904/DTD/svg10.dtd">
<svg version="1.0" xmlns="http://www.w3.org/2000/svg"
 width="55px" height="55px" viewBox="0 0 1024.000000 1024.000000"
 preserveAspectRatio="xMidYMid meet">

<g transform="translate(0.000000,1024.000000) scale(0.100000,-0.100000)"
fill="#000000" stroke="none">
<path d="M4250 8189 c-630 -5 -659 -6 -755 -28 -470 -105 -858 -364 -1110
-741 -175 -262 -269 -534 -295 -855 -13 -165 -13 -2723 1 -2880 47 -544 340
-1035 793 -1331 188 -122 377 -198 625 -252 l126 -27 1490 0 c1654 0 1525 -5
1779 66 318 90 614 279 835 535 99 114 132 159 201 278 115 201 193 428 220
651 6 50 10 629 10 1534 0 1608 2 1548 -65 1780 -94 327 -260 591 -515 824
-291 265 -682 428 -1060 443 -202 8 -1534 10 -2280 3z m1236 -430 c28 -23 666
-1101 657 -1110 -5 -5 -305 -8 -737 -7 l-727 3 -331 545 c-182 300 -333 553
-336 562 -4 17 19 18 354 20 668 5 1104 0 1120 -13z m1184 -7 c195 -37 384
-120 546 -241 99 -73 238 -217 303 -314 103 -154 201 -394 205 -502 l1 -50
-540 0 -539 0 -333 555 c-183 305 -333 558 -333 562 0 11 151 16 380 12 151
-2 233 -8 310 -22z m-3063 -139 c38 -65 168 -280 288 -478 242 -400 285 -473
285 -486 0 -5 -340 -9 -825 -9 l-825 0 0 33 c0 19 13 81 30 140 97 347 349
654 670 817 87 44 235 99 271 99 34 1 36 -1 106 -116z m4131 -1401 c10 -7 12
-261 9 -1298 -3 -1194 -4 -1295 -21 -1364 -79 -333 -246 -595 -505 -791 -183
-139 -409 -233 -622 -259 -68 -8 -486 -10 -1529 -8 l-1435 3 -101 27 c-197 53
-347 124 -498 238 -261 195 -431 467 -506 805 -19 87 -20 131 -20 1366 0 702
3 1279 7 1282 9 10 5206 8 5221 -1z"/>
<path d="M4415 5456 c-23 -14 -51 -43 -65 -68 l-25 -43 -3 -863 c-2 -595 1
-875 8 -903 13 -47 68 -111 110 -129 18 -7 54 -10 87 -8 50 4 74 15 173 75 63
38 216 130 340 203 124 73 245 145 270 160 25 15 135 80 245 145 437 256 435
255 461 294 31 48 39 95 25 148 -16 58 -42 86 -134 147 -45 29 -251 163 -457
297 -206 135 -468 305 -582 379 -282 185 -292 190 -358 190 -41 0 -66 -7 -95
-24z"/>
</g>
</svg>
